<svg xmlns="http://www.w3.org/2000/svg" xmlns:xlink="http://www.w3.org/1999/xlink" width="531.326" height="679.998" viewBox="0 0 531.326 679.998">
  <defs>
    <filter id="LA_RECUPERIE_CATALANE" x="23.201" y="75.794" width="453" height="329" filterUnits="userSpaceOnUse">
      <feOffset dy="3" input="SourceAlpha"/>
      <feGaussianBlur stdDeviation="3" result="blur"/>
      <feFlood flood-opacity="0.161"/>
      <feComposite operator="in" in2="blur"/>
      <feComposite in="SourceGraphic"/>
    </filter>
  </defs>
  <g id="Groupe_5" data-name="Groupe 5" transform="translate(-126.951 -60.206)">
    <path id="Tracé_1" data-name="Tracé 1" d="M2138.485,69.527V386.572c-1.433,66.11,55.072,273.453,263.654,349.544,261.253-93,254.639-319.953,254.639-319.953V69.527H2138.485Z" transform="translate(-2005 -2.821)" fill="#e3ca13" stroke="#000" stroke-width="13"/>
    <path id="Tracé_2" data-name="Tracé 2" d="M2097.691,58.276h51.162V608.22s-26.06-26.968-50.376-69.315C2098.477,492.053,2097.691,58.276,2097.691,58.276Z" transform="translate(-1905 15)" fill="maroon"/>
    <path id="Tracé_3" data-name="Tracé 3" d="M2097.691,58.276h51.162l-.006,636.156a389.531,389.531,0,0,1-50.027-29.795C2098.82,624.931,2097.691,58.276,2097.691,58.276Z" transform="translate(-1791 15)" fill="maroon"/>
    <path id="Tracé_4" data-name="Tracé 4" d="M2148.841,58.276h-51.15v642.75a415.066,415.066,0,0,0,50.167-25.215C2147.858,628.779,2148.841,58.276,2148.841,58.276Z" transform="translate(-1673.838 15)" fill="maroon"/>
    <path id="Tracé_5" data-name="Tracé 5" d="M2148.841,59.276h-51.15V627s33.735-30.063,50.353-59.65C2148.043,431.822,2148.841,59.276,2148.841,59.276Z" transform="translate(-1556.688 14)" fill="maroon"/>
    <rect id="Rectangle_8" data-name="Rectangle 8" width="482" height="320" rx="132" transform="translate(149 144)" fill="#fff" opacity="0.58"/>
    <g transform="matrix(1, 0, 0, 1, 126.95, 60.21)" filter="url(#LA_RECUPERIE_CATALANE)">
      <text id="LA_RECUPERIE_CATALANE-2" data-name="LA
RECUPERIE
CATALANE" transform="translate(249.2 153.79)" fill="#608e3b" stroke="#000" stroke-width="1" font-size="65" font-family="SegoeScript, Segoe Script"><tspan x="-48.702" y="0">LA</tspan><tspan x="-215.201" y="103">RECUPERIE</tspan><tspan x="-195.175" y="206">CATALANE</tspan></text>
    </g>
    <g id="Camion" transform="translate(-381.994 -209.647)">
      <path id="Soustraction_1" data-name="Soustraction 1" d="M-1578.149,318.368h-28.042l0-.014c-.106-.664-1.049-6.737-1.529-15.272-.3-5.276-.361-10.451-.192-15.382a124.1,124.1,0,0,1,1.723-17.23l.029-.176a92.841,92.841,0,0,1,3.379-14.424,68.663,68.663,0,0,1,10.472-20.3,60.63,60.63,0,0,1,22.378-18.1,76.04,76.04,0,0,1,17.158-5.7,107.325,107.325,0,0,1,21.94-2.125c.352,0,.712,0,1.068,0v96.64a26.524,26.524,0,0,0-21.993-11.686,26.451,26.451,0,0,0-26.389,23.762Z" transform="translate(2232.037 518.251)" fill="#385423"/>
      <path id="Tracé_7" data-name="Tracé 7" d="M639.166,539.946c0-.318,45.542,0,45.542,0V498.228H668.465s-8.917,2.866-19.108,16.56S639.166,539.946,639.166,539.946Z" transform="translate(-4.042 245.195)" fill="#fff"/>
      <path id="Soustraction_4" data-name="Soustraction 4" d="M-1467.6,361.627h-140.409V230.254a20.473,20.473,0,0,1,6.036-14.572,20.473,20.473,0,0,1,14.572-6.036h156.1a20.473,20.473,0,0,1,14.571,6.036,20.472,20.472,0,0,1,6.036,14.572V361.625h-4.4a26.865,26.865,0,0,0,.279-3.864,26.562,26.562,0,0,0-26.532-26.532,26.562,26.562,0,0,0-26.532,26.532,26.865,26.865,0,0,0,.279,3.864Z" transform="translate(2316.876 489.353)" fill="#7d9a1a"/>
      <g id="Groupe_3" data-name="Groupe 3" transform="translate(658.897 818.007)">
        <circle id="Ellipse_3" data-name="Ellipse 3" cx="21.638" cy="21.638" r="21.638" transform="translate(0 0)" fill="#385423"/>
        <circle id="Ellipse_4" data-name="Ellipse 4" cx="11.849" cy="11.849" r="11.849" transform="translate(9.788 9.788)" fill="#fff"/>
      </g>
      <g id="Groupe_4" data-name="Groupe 4" transform="translate(854.151 824.189)">
        <circle id="Ellipse_5" data-name="Ellipse 5" cx="21.638" cy="21.638" r="21.638" transform="translate(0 0)" fill="#385423"/>
        <circle id="Ellipse_6" data-name="Ellipse 6" cx="11.849" cy="11.849" r="11.849" transform="translate(9.788 9.788)" fill="#fff"/>
      </g>
      <path id="Tracé_9" data-name="Tracé 9" d="M926.924,488.639H908.271s-25.833.539-34.981-39.288c-2.636-14.541,0-35.521,0-35.521s10.819-2.164,25.833,0c4.9,1.066,34.5,11.292,42.517,35.521,6.514,25.823,3.768,30.138-3.767,47.9-14.531-32.83-20.453-46.285-38.75-57.587C913.653,460.114,926.2,477.875,926.924,488.639Z" transform="translate(-130.216 323.333)" fill="#fff"/>
      <path id="Tracé_10" data-name="Tracé 10" d="M1008.11,449.482c4.305-7,11.84-14.531,21.528-14.531a121.248,121.248,0,0,1,26.371,0v29.062s-7,28.525-29.062,33.368-15.61,0-15.61,0,28.524-51.129,23.681-41.979c-3.229-1.615-11.84,17.223-19.913,21.528C1011.876,469.934,1009.4,456.587,1008.11,449.482Z" transform="translate(-193.025 313.32)" fill="#fff"/>
    </g>
  </g>
</svg>
