<svg xmlns="http://www.w3.org/2000/svg" width="753" height="253" viewBox="0 0 753 253">
  <g id="Groupe_14" data-name="Groupe 14" transform="translate(-165 -199)">
    <rect id="Rectangle_10" data-name="Rectangle 10" width="753" height="253" transform="translate(165 199)" fill="#ddceba"/>
    <text id="LA_RECUPERIE_CATALANE" data-name="LA RECUPERIE
      CATALANE" transform="translate(575 283)" fill="#7d9a1a" font-size="77" font-family="SegoeScript-Bold, Segoe Script" font-weight="700"><tspan x="-328.021" y="0">LA RECUPERIE</tspan><tspan x="-323.584" y="120" xml:space="preserve">      CATALANE</tspan></text>
    <g id="Groupe_13" data-name="Groupe 13" transform="translate(-39.012 -238.75)">
      <g id="Camion" transform="translate(220.68 556.984)">
        <path id="Soustraction_1" data-name="Soustraction 1" d="M19.012,69.229H1.156l0-.009c-.067-.423-.668-4.29-.973-9.725-.189-3.36-.23-6.655-.122-9.795a79.015,79.015,0,0,1,1.1-10.972l.018-.112a59.117,59.117,0,0,1,2.152-9.185A43.722,43.722,0,0,1,9.994,16.507,38.606,38.606,0,0,1,24.243,4.984,48.419,48.419,0,0,1,35.169,1.353,68.34,68.34,0,0,1,49.14,0l.68,0V61.539a16.9,16.9,0,0,0-30.808,7.689Z" transform="translate(0 18.401)" fill="#385423"/>
        <path id="Tracé_7" data-name="Tracé 7" d="M639.166,524.792c0-.2,29,0,29,0V498.228H657.822s-5.678,1.825-12.167,10.545S639.166,524.792,639.166,524.792Z" transform="translate(-632.102 -469.941)" fill="#fff"/>
        <path id="Soustraction_4" data-name="Soustraction 4" d="M89.406,96.774H0V13.122A13.122,13.122,0,0,1,13.122,0h99.4a13.122,13.122,0,0,1,13.122,13.122V96.774h-2.8a17.1,17.1,0,0,0,.178-2.46,16.894,16.894,0,1,0-33.789,0,17.1,17.1,0,0,0,.178,2.46Z" transform="translate(54.022 0)" fill="#7d9a1a"/>
        <g id="Groupe_3" data-name="Groupe 3" transform="translate(22.201 75.779)">
          <circle id="Ellipse_3" data-name="Ellipse 3" cx="13.778" cy="13.778" r="13.778" transform="translate(0 0)" fill="#385423"/>
          <circle id="Ellipse_4" data-name="Ellipse 4" cx="7.545" cy="7.545" r="7.545" transform="translate(6.233 6.233)" fill="#fff"/>
        </g>
        <g id="Groupe_4" data-name="Groupe 4" transform="translate(146.531 79.715)">
          <circle id="Ellipse_5" data-name="Ellipse 5" cx="13.778" cy="13.778" r="13.778" transform="translate(0 0)" fill="#385423"/>
          <circle id="Ellipse_6" data-name="Ellipse 6" cx="7.545" cy="7.545" r="7.545" transform="translate(6.233 6.233)" fill="#fff"/>
        </g>
        <path id="Tracé_9" data-name="Tracé 9" d="M907.017,461.116H895.139s-16.449.343-22.274-25.017c-1.679-9.259,0-22.618,0-22.618a53.405,53.405,0,0,1,16.449,0c3.119.679,21.968,7.19,27.073,22.618,4.148,16.443,2.4,19.191-2.4,30.5-9.253-20.9-13.024-29.472-24.674-36.669C898.566,442.953,906.557,454.262,907.017,461.116Z" transform="translate(-797.063 -389.18)" fill="#fff"/>
        <path id="Tracé_10" data-name="Tracé 10" d="M1008.11,443.943c2.741-4.455,7.539-9.253,13.708-9.253a77.2,77.2,0,0,1,16.792,0V453.2s-4.455,18.163-18.506,21.248-9.94,0-9.94,0,18.163-32.557,15.079-26.731c-2.056-1.028-7.539,10.967-12.68,13.708C1010.508,456.966,1008.933,448.467,1008.11,443.943Z" transform="translate(-886.455 -403.316)" fill="#fff"/>
      </g>
      <g id="Groupe_12" data-name="Groupe 12" transform="translate(284.057 557.007)">
        <circle id="Ellipse_7" data-name="Ellipse 7" cx="48.619" cy="48.619" r="48.619" fill="#7d9a1a"/>
        <path id="Tracé_13" data-name="Tracé 13" d="M8.166,0l7.3,13.375L0,13.158Z" transform="matrix(-0.883, -0.469, 0.469, -0.883, 32.624, 53.149)" fill="#fff" stroke="#fff" stroke-width="1"/>
        <path id="Tracé_15" data-name="Tracé 15" d="M8.166,0l7.1,13.691L0,13.158Z" transform="translate(58.998 62.473) rotate(88)" fill="#fff" stroke="#fff" stroke-width="1"/>
        <path id="Tracé_16" data-name="Tracé 16" d="M8.166,0l7.1,13.691L0,13.158Z" transform="translate(58.061 40.767) rotate(-31)" fill="#fff" stroke="#fff" stroke-width="1"/>
        <path id="Tracé_12" data-name="Tracé 12" d="M1364.691,523.6s-3.63-9.985-8.756-15.451c-1.579-1.691-3.6-2.969-5.667-2.75-1.4-.16-3.033.908-4.976,2.917-4.682,5.519-8.966,13.964-11.8,18.548" transform="translate(-1301.278 -489.112)" fill="none" stroke="#fff" stroke-width="5"/>
        <path id="Tracé_14" data-name="Tracé 14" d="M28.425,12.645c-1.366-2.433-3.226-6.9-7.782-10.678A7.046,7.046,0,0,0,15.7.016c-1.244-.111-2.766,1.336-3.3,1.85C8.242,5.681,0,21.455,0,21.455" transform="translate(27.536 81.857) rotate(-120)" fill="none" stroke="#fff" stroke-width="5"/>
        <path id="Tracé_17" data-name="Tracé 17" d="M24.642,14.11C22.077,9.842,19.285,3.43,15.991.7,14.588-.469,8.444-2.589,0,17.472" transform="translate(86.854 56.836) rotate(121)" fill="none" stroke="#fff" stroke-width="5"/>
      </g>
    </g>
    <g id="International_tidyman" transform="translate(319.75 324.944)">
      <path id="body" d="M59.3,64.5l48.182.121c4.224,4.707,11.163,20.546,11.465,24.468L94.81,90.3a46.772,46.772,0,0,0-4.827-16.563ZM94.81,91.8l-8.146,52.8,18.705-34.7,8.448,35,4.827-52.5Z" transform="translate(-12.717 -44.342)" fill="#7d9a1a"/>
      <path id="head" d="M9.051,0A9.051,9.051,0,1,1,0,9.051,9.051,9.051,0,0,1,9.051,0Z" transform="translate(76.06 1)" fill="#7d9a1a"/>
    </g>
  </g>
</svg>
